<svg width="24" height="24" viewBox="0 0 24 24" fill="none" xmlns="http://www.w3.org/2000/svg">
<rect x="24" y="24" width="24" height="24" rx="12" transform="rotate(-180 24 24)" fill="white" fill-opacity="0.16"/>
<path d="M14.0667 16.9133L14.7333 18.0733C14.0933 18.3667 13.3933 18.56 12.6667 18.6333V17.2867C13.16 17.2267 13.6267 17.1 14.0667 16.9133ZM6.71333 12.6667H5.36667C5.44 13.4 5.63333 14.0933 5.92667 14.7333L7.08667 14.0667C6.9 13.6267 6.77333 13.16 6.71333 12.6667ZM14.0667 7.08667L14.7333 5.92667C14.0933 5.63333 13.4 5.44 12.6667 5.36667V6.71333C13.16 6.77333 13.6267 6.9 14.0667 7.08667ZM17.2867 11.3333H18.6333C18.56 10.6 18.3667 9.90667 18.0733 9.26667L16.9133 9.93333C17.1 10.3733 17.2267 10.84 17.2867 11.3333ZM9.93333 16.9133L9.26667 18.0733C9.90667 18.3667 10.6067 18.56 11.3333 18.6333V17.2867C10.84 17.2267 10.3733 17.1 9.93333 16.9133ZM11.3333 6.71333V5.36667C10.6 5.44 9.90667 5.63333 9.26667 5.92667L9.93333 7.08667C10.3733 6.9 10.84 6.77333 11.3333 6.71333ZM16.24 8.78L17.4 8.10667C16.98 7.52667 16.4667 7.01333 15.8867 6.59333L15.2133 7.75333C15.6067 8.05333 15.9467 8.39333 16.24 8.78ZM7.08667 9.93333L5.92667 9.26667C5.63333 9.90667 5.44 10.6 5.36667 11.3333H6.71333C6.77333 10.84 6.9 10.3733 7.08667 9.93333ZM17.2867 12.6667C17.2267 13.16 17.1 13.6267 16.9133 14.0667L18.0733 14.7333C18.3667 14.0933 18.56 13.3933 18.6333 12.6667H17.2867ZM15.22 16.24L15.8933 17.4C16.4733 16.98 16.9867 16.4667 17.4067 15.8867L16.2467 15.2133C15.9467 15.6067 15.6067 15.9467 15.22 16.24ZM8.78 7.76L8.11333 6.59333C7.52667 7.02 7.02 7.52667 6.6 8.11333L7.76 8.78667C8.05333 8.39333 8.39333 8.05333 8.78 7.76ZM7.76 15.22L6.6 15.8867C7.02 16.4667 7.53333 16.98 8.11333 17.4L8.78667 16.24C8.39333 15.9467 8.05333 15.6067 7.76 15.22ZM12 8.66667C11.6333 8.66667 11.3333 8.96667 11.3333 9.33333V11.7267C11.3333 12.08 11.4733 12.42 11.7267 12.6667L13.7267 14.6667C13.9867 14.9267 14.4067 14.9267 14.6667 14.6667C14.9267 14.4067 14.9267 13.9867 14.6667 13.7267L12.6667 11.7267V9.33333C12.6667 8.96667 12.3667 8.66667 12 8.66667Z" fill="white"/>
</svg>
