<svg width="24" height="24" viewBox="0 0 24 24" fill="none" xmlns="http://www.w3.org/2000/svg">
<rect x="24" y="24" width="24" height="24" rx="12" transform="rotate(-180 24 24)" fill="white" fill-opacity="0.16"/>
<path d="M12 6.66667C9.05448 6.66667 6.66667 9.05448 6.66667 12C6.66667 14.9455 9.05448 17.3333 12 17.3333C14.9455 17.3333 17.3333 14.9455 17.3333 12C17.3333 9.05448 14.9455 6.66667 12 6.66667ZM5.33334 12C5.33334 8.3181 8.3181 5.33333 12 5.33333C15.6819 5.33333 18.6667 8.3181 18.6667 12C18.6667 15.6819 15.6819 18.6667 12 18.6667C8.3181 18.6667 5.33334 15.6819 5.33334 12ZM15.1096 9.83506C15.3848 10.0797 15.4096 10.5011 15.1649 10.7762L11.6094 14.7762C11.4829 14.9186 11.3015 15 11.1111 15C10.9207 15 10.7394 14.9186 10.6128 14.7762L8.83506 12.7762C8.59045 12.5011 8.61524 12.0797 8.89043 11.8351C9.16561 11.5904 9.587 11.6152 9.83161 11.8904L11.1111 13.3299L14.1684 9.89042C14.413 9.61524 14.8344 9.59045 15.1096 9.83506Z" fill="white"/>
</svg>
